<svg width="32" height="31" viewBox="0 0 32 31" fill="none" xmlns="http://www.w3.org/2000/svg">
<path d="M30.7907 11.0218C30.4513 11.3612 29.9665 11.3612 29.6271 11.0218L23.9059 5.30057C23.518 4.91269 22.8877 4.91269 22.4998 5.30057C22.1119 5.68845 22.1119 6.31875 22.4998 6.70663L28.124 12.3309C28.5119 12.7188 28.5119 13.3491 28.124 13.7369C27.7362 14.1248 27.1059 14.1248 26.718 13.7369L21.0453 8.16118C20.6574 7.7733 20.0271 7.7733 19.6392 8.16118C19.2513 8.54906 19.2513 9.17936 19.6392 9.56724L25.215 15.1915C25.6028 15.5794 25.6028 16.2097 25.215 16.5975C24.8271 16.9854 24.1968 16.9854 23.8089 16.5975L18.1847 11.0218C17.7968 10.6339 17.1665 10.6339 16.7786 11.0218C16.3907 11.4097 16.3907 12.04 16.7786 12.4278L22.4028 18.0521C22.7907 18.44 22.7907 19.0703 22.4028 19.4581C22.015 19.846 21.3846 19.846 20.9968 19.4581L15.324 13.8824C14.9362 13.4945 14.3059 13.4945 13.918 13.8824C13.5301 14.2703 13.5301 14.9006 13.918 15.2885L19.5422 20.9127C19.9301 21.3006 19.9301 21.9309 19.5422 22.3188C19.1543 22.7066 18.524 22.7066 18.1362 22.3188L12.4634 16.743C12.0756 16.3551 11.4453 16.3551 11.0574 16.743C10.6695 17.1309 10.6695 17.7612 11.0574 18.1491L16.6816 23.7733C17.0695 24.1612 17.0695 24.7915 16.6816 25.1794C16.2937 25.5672 15.6634 25.5672 15.2756 25.1794L9.60283 19.6036C9.21495 19.2157 8.58465 19.2157 8.19677 19.6036C7.80889 19.9915 7.80889 20.6218 8.19677 21.0097L13.7725 26.6339C14.1604 27.0218 14.1604 27.6521 13.7725 28.04C13.3846 28.4278 12.7543 28.4278 12.3665 28.04L6.74223 22.4642C6.35435 22.0763 5.72404 22.0763 5.33617 22.4642C4.94829 22.8521 4.94829 23.4824 5.33617 23.8703L11.0574 29.5915C11.3968 29.9309 11.3968 30.4157 11.0574 30.7551C10.815 30.9975 10.4756 31.046 10.1362 30.9006C6.40283 29.2521 1.99071 25.0339 0.342226 21.7854C-0.191107 20.7188 -0.0941378 19.5066 0.58465 18.5369C5.33617 11.4097 11.4453 5.30057 18.5725 0.549056C19.5422 -0.0812466 20.8028 -0.178216 21.821 0.306632C25.0695 1.95512 29.2877 6.36724 30.9847 10.1491C31.0816 10.44 31.0331 10.7794 30.7907 11.0218Z" fill="white"/>
</svg>
