<svg width="32" height="21" viewBox="0 0 32 21" fill="none" xmlns="http://www.w3.org/2000/svg">
<path d="M10.8525 2.2571C10.317 1.79432 9.87885 1.25201 9.56243 0.630146C9.62734 0.58676 9.70036 0.536143 9.79772 0.471065C9.91942 0.391524 10.0898 0.26138 10.3657 0.167378C10.6821 0.0661451 10.82 0.109524 10.8687 0.138448C10.9498 0.174603 11.0147 0.239673 11.0715 0.333675C11.1365 0.456601 11.2095 0.579527 11.2906 0.695221C12.1182 1.91725 13.5705 2.79942 15.6719 2.79942C17.9112 2.79942 19.4285 1.78709 20.2155 0.427681C20.2642 0.348141 20.256 0.160137 20.4102 0.0661345C20.6942 -0.114639 21.2216 0.109532 21.6353 0.326459C21.7814 0.384307 21.9355 0.449385 22.0816 0.507232C21.3595 1.5051 19.7773 3.20436 17.0837 3.6816C16.6942 3.75391 13.2379 4.289 10.8768 2.26434L10.8525 2.2571Z" fill="white"/>
<path d="M31.9315 11.599C31.4853 12.0618 29.9437 13.6743 27.0877 14.1732C27.0228 14.1732 26.8038 13.9563 26.5523 13.696C26.3332 13.038 26.0898 12.3799 25.8383 11.7364C25.5218 10.9338 25.1648 10.1094 24.7916 9.30679C24.678 9.06817 24.3697 8.94525 24.102 9.04648C23.8342 9.14772 23.7044 9.42248 23.8099 9.6611C24.175 10.4565 24.5239 11.2519 24.8403 12.0473C25.5056 13.7321 26.0736 15.482 26.5279 17.2391C26.5279 17.2536 26.5279 17.2608 26.5441 17.268V17.2825C26.6172 17.6296 26.6821 17.9622 26.7308 18.2731V18.2876C26.747 18.3961 26.7632 18.5045 26.7794 18.6058C26.8038 18.7793 26.6983 18.9384 26.5279 19.0035C25.4245 19.365 21.4651 20.522 15.9966 20.522C10.5281 20.522 6.52809 19.3505 5.44899 18.9962C5.27049 18.9384 5.16502 18.7793 5.18936 18.6202C5.24615 18.237 5.32729 17.8248 5.42465 17.4054C5.4571 17.362 5.48956 17.3042 5.50578 17.2464C5.96014 15.4965 6.51997 13.7466 7.1934 12.0545C7.50982 11.2519 7.85871 10.4493 8.2157 9.66833C8.32929 9.42971 8.19947 9.15493 7.93173 9.0537C7.66398 8.95247 7.35567 9.07541 7.24208 9.31403C6.87697 10.1094 6.51997 10.9265 6.19543 11.7436C5.90335 12.4739 5.6356 13.2187 5.3922 13.9563C5.19747 14.1443 5.0352 14.2744 4.98652 14.2744C2.13056 13.7755 0.515969 12.069 0.0616124 11.6062C-0.0114093 11.5339 -0.0195234 11.4472 0.0372713 11.3748C0.345585 10.8687 1.56261 8.91631 2.91757 6.42887C4.16705 4.12944 6.24411 2.41572 8.67006 1.13585C9.04328 1.82279 9.53009 2.43019 10.1305 2.94358C11.8668 4.43315 14.0331 4.75131 15.5584 4.75131C16.3941 4.75131 17.027 4.6573 17.2785 4.60669C20.4022 4.05714 22.2034 2.09033 22.9985 0.955078C23.0229 0.976771 23.0472 0.984 23.0797 0.998462C25.6192 2.24941 27.8099 4.08605 29.0918 6.42887C30.4467 8.91631 31.6638 10.8759 31.9721 11.3748C32.0127 11.4472 32.0127 11.5411 31.9477 11.6062L31.9315 11.599Z" fill="white"/>
</svg>
