<svg width="250" height="414" viewBox="0 0 250 414" fill="none" xmlns="http://www.w3.org/2000/svg">
<path fill-rule="evenodd" clip-rule="evenodd" d="M54.9084 116.013C48.5365 137.858 45.9156 171.765 62.5908 185.407H62.6508C91.0396 208.642 166.193 192.219 177.957 187.138C187.39 183.077 192.531 176.806 196.983 169.044C201.024 162.003 205.415 142.409 202.774 127.716C201.514 120.834 199.333 114.483 197.053 109.232C189.2 86.287 165.973 67.9433 125.85 67.3932C95.8311 66.9831 72.4939 80.7059 60.9603 100.96C60.5102 101.72 60.06 102.56 59.6099 103.471C57.5893 107.441 56.0188 111.642 54.9084 116.013Z" fill="#E6E6E5"/>
<path d="M119.598 169.694C123.819 169.694 127.211 164.202 127.211 157.391C127.211 150.58 123.819 145.089 119.598 145.089C115.377 145.089 111.996 150.58 111.996 157.391C111.996 164.202 115.387 169.694 119.598 169.694Z" fill="#010101"/>
<path d="M70.1429 165.813C74.3542 165.813 77.7452 160.622 77.7452 154.17C77.7452 147.719 74.3542 142.528 70.1429 142.528C65.9316 142.528 62.5305 147.719 62.5305 154.17C62.5305 160.622 65.9216 165.813 70.1429 165.813Z" fill="#010101"/>
<path d="M91.5771 170.896C86.3368 182.33 73.3779 171.978 81.2452 164.919C81.5583 164.638 82.0108 165.007 81.8505 165.396C80.6643 168.274 80.0537 172.391 84.0758 173.396C86.721 173.837 90.1417 170.781 91.2589 168.337C91.3497 168.139 91.7952 168.141 91.88 168.342C92.981 170.959 96.4946 174.724 100.581 173.396C104.609 172.087 104.653 168.876 102.939 164.425C102.779 164.009 103.276 163.702 103.548 164.055C111.386 174.259 95.8505 181.813 91.5771 170.896Z" fill="black"/>
<ellipse cx="112.585" cy="173.925" rx="1.00031" ry="1.00021" transform="rotate(0.0883542 112.585 173.925)" fill="#F8856B"/>
<ellipse cx="119.586" cy="174.936" rx="1.00031" ry="1.00021" transform="rotate(0.0883542 119.586 174.936)" fill="#F8856B"/>
<ellipse cx="114.578" cy="178.93" rx="1.00031" ry="1.00021" transform="rotate(0.0883542 114.578 178.93)" fill="#F8856B"/>
<ellipse cx="1.0003" cy="1.00022" rx="1.0003" ry="1.00022" transform="matrix(0.93289 -0.360162 0.360228 0.932864 66.5618 171.943)" fill="#F8856C"/>
<ellipse cx="1.0003" cy="1.00022" rx="1.0003" ry="1.00022" transform="matrix(0.93289 -0.360162 0.360228 0.932864 73.4546 170.354)" fill="#F8856C"/>
<ellipse cx="1.0003" cy="1.00022" rx="1.0003" ry="1.00022" transform="matrix(0.93289 -0.360162 0.360228 0.932864 70.2299 175.888)" fill="#F8856C"/>
<ellipse cx="117.578" cy="152.63" rx="3.00093" ry="4.00082" fill="#E6E6E5"/>
<ellipse cx="67.5621" cy="149.629" rx="3.00093" ry="4.00082" fill="#E6E6E5"/>
</svg>
