<svg width="32" height="16" viewBox="0 0 32 16" fill="none" xmlns="http://www.w3.org/2000/svg">
<path d="M18.1636 4.73092L13.7966 4.76922C13.039 4.77586 12.4308 5.33229 12.4382 6.01204L12.4768 9.55152C12.4842 10.2313 13.1043 10.7769 13.862 10.7703L18.2289 10.732C18.9866 10.7254 19.5947 10.1689 19.5873 9.48916L19.5488 5.94969C19.5414 5.26993 18.9212 4.72428 18.1636 4.73092Z" fill="white"/>
<path d="M5.83543 10.6343C5.77861 10.6488 5.72179 10.6561 5.66497 10.6561C5.39709 10.6561 5.15357 10.5032 5.08051 10.2628C4.9831 9.97149 5.1698 9.67288 5.4945 9.58548L11.3066 8.07785V7.66271L5.64873 5.62341C5.34027 5.51416 5.18603 5.19371 5.3078 4.90966C5.43768 4.6329 5.78672 4.49451 6.10331 4.60376L11.3147 6.48283V5.14272C10.8358 4.56006 10.4137 3.96284 9.91851 3.47487C7.76738 1.39187 5.19415 0.510593 2.49916 0.00805135C2.25564 -0.0356479 2.11764 0.102739 1.99588 0.321235C-0.666644 4.92423 -0.666644 10.6197 2.004 15.179C2.14199 15.4193 2.30434 15.5359 2.54787 15.4703C3.76548 15.1134 5.00745 14.844 6.1926 14.3851C8.01091 13.6932 9.64252 12.6007 10.9007 10.8455C11.0306 10.6634 11.1524 10.4813 11.2904 10.2774V9.20675L5.82731 10.627L5.83543 10.6343Z" fill="white"/>
<path d="M30.0174 0.329037C29.8875 0.110541 29.7576 -0.027835 29.5141 0.0158643C26.8191 0.518406 24.254 1.39967 22.0947 3.48267C21.5996 3.96336 21.1775 4.56786 20.6904 5.15052V6.49064L25.9099 4.61157C26.2184 4.50232 26.5756 4.63342 26.7055 4.91746C26.8272 5.19423 26.6811 5.51468 26.3645 5.63122L20.7067 7.67052V8.08566L26.5188 9.59329C26.8435 9.68068 27.0302 9.97929 26.9327 10.2706C26.8597 10.511 26.6162 10.6639 26.3483 10.6639C26.2915 10.6639 26.2346 10.6639 26.1778 10.6421L20.7067 9.22185V10.2925C20.8528 10.4964 20.9664 10.6785 21.0963 10.8606C22.3545 12.6158 23.9861 13.701 25.8044 14.4002C26.9896 14.8591 28.2315 15.1285 29.4492 15.4854C29.6927 15.5582 29.855 15.4344 29.993 15.1941C32.6637 10.6421 32.6718 4.93931 30.0011 0.336316L30.0174 0.329037Z" fill="white"/>
</svg>
