<svg width="25" height="28" viewBox="0 0 25 28" fill="none" xmlns="http://www.w3.org/2000/svg">
<path d="M19.1034 4.27755V14.2499C19.1034 15.6968 17.8133 16.8742 16.2278 16.8742H8.54138C6.95591 16.8742 5.66577 15.6968 5.66577 14.2499V4.27755C5.66577 3.65339 6.20203 3.13559 6.87042 3.08594H7.25901C7.30564 3.10012 7.35227 3.10724 7.39113 3.10724H17.3625C17.4169 3.10724 17.4635 3.10722 17.5024 3.08594H17.891C18.5594 3.13559 19.0956 3.65339 19.0956 4.27755H19.1034Z" fill="white"/>
<path d="M17.5102 3.08594C17.4636 3.10012 17.4169 3.10724 17.3703 3.10724H7.39897C7.35234 3.10724 7.30571 3.10722 7.26685 3.08594H17.518H17.5102Z" fill="white"/>
<path d="M24.2872 18.7463V24.612C24.2872 25.5128 23.4789 26.2433 22.4997 26.2433H21.6991C20.7277 27.3001 19.2665 27.974 17.6344 27.974H7.1346C5.51028 27.974 4.05693 27.3001 3.07767 26.2433H1.78754C0.800505 26.2433 0 25.5128 0 24.612V18.7463C0 18.1009 0.419682 17.5335 1.02589 17.271C1.28236 17.5122 1.49998 17.7817 1.69427 18.0725C2.14504 18.7534 2.31603 19.4343 2.44815 20.3847C2.65022 21.8529 2.69685 23.3921 2.5725 24.9666C2.54918 25.2504 2.78234 25.4986 3.09322 25.5199H3.13985C3.42741 25.5199 3.67611 25.3213 3.69942 25.0447C3.83932 23.3991 3.79269 21.782 3.5673 20.2571C3.41964 19.1648 3.21757 18.3775 2.65799 17.5335C2.41706 17.1718 2.13727 16.8384 1.81085 16.5334V8.00795C1.81085 6.2064 2.88338 4.63891 4.48439 3.79487C4.43776 3.9651 4.41444 4.14952 4.41444 4.33393V14.207C4.41444 16.2994 6.27969 18.0016 8.5724 18.0016H16.1811C18.4738 18.0016 20.3391 16.2994 20.3391 14.207V4.33393C20.3391 4.14952 20.3157 3.97219 20.2691 3.79487C21.8624 4.63891 22.9426 6.2064 22.9426 8.00795V16.3064C22.523 16.6682 22.1499 17.0796 21.8468 17.5335C21.3883 18.2357 21.1396 18.9733 20.9375 20.25C20.7199 21.6472 20.6655 23.0942 20.7665 24.5624C20.7898 24.8319 21.0385 25.0447 21.3339 25.0447H21.3727C21.6836 25.0234 21.9168 24.7752 21.9012 24.4914C21.8002 23.1013 21.8546 21.7111 22.0567 20.3918C22.2587 19.101 22.4841 18.569 22.8183 18.0725C22.9815 17.8172 23.1836 17.5761 23.3934 17.3562C23.9141 17.6399 24.2716 18.1576 24.2716 18.7463H24.2872Z" fill="white"/>
<path d="M12.4893 0C10.8184 0 9.36501 0.836928 8.60336 2.07106H10.2821C10.8494 1.55329 11.6344 1.22703 12.4971 1.22703C13.3598 1.22703 14.1525 1.55329 14.7198 2.07106H16.3908C15.6292 0.829835 14.168 0 12.5049 0H12.4893ZM15.4115 3.08531C15.4115 3.08531 15.4271 3.09952 15.4271 3.10661H16.8338C16.8338 3.10661 16.8338 3.09241 16.8338 3.08531H15.4115ZM8.15259 3.10661H9.56708C9.56708 3.10661 9.56708 3.09241 9.56708 3.08531H8.15259C8.15259 3.08531 8.15259 3.09952 8.15259 3.10661Z" fill="white"/>
<path d="M17.5102 3.08594C17.4636 3.10012 17.4169 3.10724 17.3703 3.10724H7.39897C7.35234 3.10724 7.30571 3.10722 7.26685 3.08594H17.518H17.5102Z" fill="#606060"/>
</svg>
