<svg width="33" height="21" viewBox="0 0 33 21" fill="none" xmlns="http://www.w3.org/2000/svg">
<path d="M32.2732 17.6419C30.5039 18.7539 27.0063 20.5914 22.4192 20.5756C21.0595 20.5756 19.839 20.3942 18.7905 20.1734C18.3236 18.5331 17.8485 16.8848 17.3734 15.2523C18.0124 15.1656 18.6431 14.9921 19.2328 14.7397C19.5277 14.6214 19.667 14.2823 19.5359 14.0063C19.4049 13.7224 19.0608 13.5962 18.7741 13.7224C18.2335 13.9511 17.6438 14.1009 17.0622 14.1719C16.8492 14.2035 16.6199 14.2192 16.4069 14.2192C16.1939 14.2192 15.9646 14.2035 15.7434 14.1798C15.0308 14.1167 14.3427 13.9274 13.7038 13.6278C13.4171 13.4937 13.0731 13.6041 12.9338 13.8801C12.7946 14.1562 12.9093 14.4874 13.196 14.6215C13.9168 14.9606 14.6949 15.1893 15.4895 15.276C15.0963 16.9794 14.7113 18.6671 14.3181 20.3627C12.8192 20.6308 10.6977 20.8359 8.19935 20.5204C4.3577 20.0315 1.53994 18.5409 0 17.5709C0.155632 16.8296 0.311266 16.0804 0.475089 15.3391C1.07304 12.5631 1.72014 9.80291 2.4082 7.04271C3.06349 7.00328 3.72698 6.84556 4.34131 6.56165C5.84849 5.85977 6.90515 4.47968 7.15908 2.89453C10.0915 3.16267 13.0403 3.29672 15.981 3.29672H16.3577C19.1346 3.29672 21.9114 3.15476 24.68 2.9024C24.9421 4.48755 25.9906 5.85977 27.4977 6.56165C28.1284 6.86922 28.8165 7.01905 29.5046 7.04271C30.381 10.2919 31.2247 13.541 32.0766 16.7981L32.2896 17.6419H32.2732Z" fill="white"/>
<path d="M5.98808 2.76829C5.77511 3.96701 4.97237 5.01589 3.81742 5.55216C3.45701 5.72565 3.07202 5.83607 2.67065 5.88339C2.95734 4.75565 3.25223 3.61212 3.54711 2.48438C4.35803 2.5869 5.16896 2.68154 5.98808 2.76829Z" fill="white"/>
<path d="M27.9645 1.41955C24.1065 1.90061 20.2075 2.16085 16.3331 2.17663C12.1638 2.1924 7.96989 1.93214 3.83336 1.40376C3.93165 1.00156 4.03814 0.591489 4.15281 0.189287C4.17739 0.126197 4.19377 0.0630904 4.21015 0C4.21015 0 15.4812 0.946356 27.5795 0C27.5795 0.0236589 27.5959 0.0552166 27.6041 0.0867618C27.727 0.536281 27.8498 0.970029 27.9645 1.41955Z" fill="white"/>
<path d="M29.1768 5.89894C28.7672 5.84373 28.3659 5.73333 27.9809 5.55983C26.8341 5.02356 26.0232 3.99045 25.8184 2.79174C26.6375 2.71287 27.4485 2.61035 28.2594 2.49995C28.5707 3.62769 28.8737 4.7712 29.1768 5.89894Z" fill="white"/>
</svg>
