<svg width="32" height="29" viewBox="0 0 32 29" fill="none" xmlns="http://www.w3.org/2000/svg">
<path d="M11.909 0.103973C1.96728 2.03148 0.271297 10.4773 0.00478529 13.8684C-0.0598236 14.6203 0.537808 15.2761 1.31311 15.2761H1.3858C1.33734 12.9247 1.7573 9.07768 4.38204 5.55058C6.34453 2.91925 9.06618 1.05573 12.5147 0C12.3128 0.0319918 12.119 0.0719811 11.9171 0.111971L11.909 0.103973ZM27.084 19.8029C27.084 19.8029 27.0275 19.7869 26.9952 19.7869C26.7771 19.7869 26.559 19.7629 26.341 19.7309" fill="white"/>
<path d="M31.8406 11.0051C31.3641 6.93414 28.2144 2.57526 22.7549 0.647753C20.3806 0.079898 17.982 -0.0160776 15.6399 0.375822C13.9358 0.647752 8.75904 1.51953 5.27016 6.19033C2.82309 9.47749 2.43544 13.0846 2.4839 15.276H21.3012C21.3174 14.2843 21.6001 13.2925 22.1492 12.4207C22.3108 12.1568 22.65 12.0848 22.9084 12.2368C23.1749 12.3967 23.2476 12.7407 23.0941 12.9886C22.4157 14.0683 22.23 15.372 22.5773 16.5637C22.9245 17.7474 23.7806 18.7151 24.879 19.267C25.3312 19.4909 25.8239 19.6509 26.3488 19.7229C26.5588 19.7629 26.7849 19.7789 27.003 19.7789C27.0353 19.7789 27.0595 19.7789 27.0918 19.7948C27.0918 19.7948 27.108 19.7948 27.116 19.7948C30.7745 19.5629 32.5513 16.9876 31.8486 10.9971L31.8406 11.0051ZM27.1887 17.2275C26.1631 17.2275 25.3312 16.4037 25.3312 15.388C25.3312 14.3722 26.1631 13.5484 27.1887 13.5484C28.2144 13.5484 29.0462 14.3722 29.0462 15.388C29.0462 16.4037 28.2144 17.2275 27.1887 17.2275Z" fill="white"/>
<path d="M24.233 20.1641C24.6691 20.404 25.1456 20.588 25.6383 20.6999C23.7404 23.3392 21.8344 25.9946 19.9285 28.6419C19.7023 28.9618 19.2985 29.1138 18.927 28.9058C18.6121 28.7139 18.4344 28.234 18.6686 27.9141C18.9593 27.4982 19.2662 27.0903 19.557 26.6744C21.1157 24.5069 22.6824 22.3395 24.233 20.1721V20.1641Z" fill="white"/>
<path d="M27.084 19.8029C27.084 19.8029 27.0275 19.7869 26.9952 19.7869C26.7771 19.7869 26.559 19.7629 26.341 19.7309" fill="white"/>
</svg>
