<svg width="25" height="24" viewBox="0 0 25 24" fill="none" xmlns="http://www.w3.org/2000/svg">
<path d="M16.7546 7.07204L23.4519 8.05557C24.014 8.14924 24.4823 8.52392 24.6696 9.08593C24.857 9.60112 24.7165 10.21 24.295 10.5846L19.4241 15.4086L20.595 22.2465C20.6887 22.8085 20.4545 23.3705 19.9862 23.6984C19.5178 24.073 18.909 24.073 18.3938 23.8389L12.3989 20.6073L6.35727 23.8389C5.88892 24.073 5.23323 24.073 4.81172 23.6984C4.34337 23.3705 4.1092 22.8085 4.20287 22.2465L5.3269 15.4086L0.456093 10.5846C0.0345806 10.21 -0.105924 9.60112 0.0814153 9.08593C0.268754 8.52392 0.737101 8.14924 1.29912 8.05557L8.04332 7.07204L11.0407 0.843025C11.2749 0.327843 11.7901 0 12.3989 0C12.961 0 13.4761 0.327843 13.7103 0.843025L16.7546 7.07204Z" fill="white"/>
</svg>
