<svg width="32" height="28" viewBox="0 0 32 28" fill="none" xmlns="http://www.w3.org/2000/svg">
<path d="M3.61545 10.7419C4.12651 11.9774 3.94804 13.1581 3.81014 13.7439C3.35586 13.4784 2.9097 13.213 2.46354 12.9476C2.04982 12.7097 1.63611 12.4625 1.21428 12.2154C0.914135 12.0415 0.808679 11.6205 0.97092 11.291C1.36841 10.4948 1.7659 9.69851 2.16339 8.90226C2.61767 9.22259 3.23418 9.79002 3.61545 10.7419Z" fill="white"/>
<path d="M31.8859 23.1432C31.821 23.5917 31.4803 23.9395 31.0747 23.9395H21.1537C20.383 23.491 19.6124 23.0333 18.8336 22.5849C17.195 21.6147 15.5645 20.6538 13.9258 19.7019C12.4332 18.8324 10.9487 17.9538 9.45608 17.0843C9.12348 16.8829 8.79089 16.6999 8.61242 16.5901C7.80933 16.1142 7.44428 15.9037 6.70609 15.4735C6.57629 15.3912 6.43839 15.3179 6.3086 15.2356C5.92733 15.0159 5.54606 14.7871 5.1648 14.5583C5.05934 14.4942 4.95388 14.4393 4.84843 14.3752C4.86465 14.3569 4.86465 14.3386 4.87276 14.3203C5.05934 13.6797 5.40816 11.9956 4.66996 10.2018C4.1589 8.93873 3.33958 8.18822 2.7474 7.77636C2.7474 7.77636 2.7474 7.77636 2.73118 7.77636C2.86097 7.48349 3.00699 7.19978 3.13678 6.9069C3.46938 6.18387 3.86687 5.49742 4.19135 4.77439C4.38604 4.32592 4.62129 3.89577 4.8322 3.4656C5.31081 2.49545 5.78131 1.5253 6.25992 0.573454C6.32482 0.445321 6.38972 0.308033 6.45462 0.170748C6.58441 -0.103823 6.94134 -0.0305897 6.99812 0.271438C7.55785 3.0263 8.84767 5.0398 11.6463 5.79945C14.7857 6.65977 16.6839 4.12459 18.355 3.7951C18.6552 3.73104 18.9472 3.91406 19.0689 4.22524L20.9022 8.76483C20.1234 9.00279 19.3852 9.37802 18.7444 9.89055C18.1441 10.3573 17.6168 10.9248 17.1706 11.5929C16.976 11.8858 17.0327 12.2976 17.2842 12.5173C17.3897 12.6088 17.5114 12.6454 17.633 12.6454C17.8115 12.6454 17.9819 12.5539 18.1035 12.3892C18.4686 11.8309 18.9066 11.3641 19.4096 10.9705C20.0018 10.5038 20.6832 10.1743 21.397 9.99122L22.4516 12.6088C21.9324 12.8285 21.4295 13.1214 20.9752 13.4692C20.3749 13.9359 19.8476 14.5125 19.4015 15.1806C19.2068 15.4735 19.2636 15.8854 19.515 16.105C19.6124 16.1966 19.7422 16.2331 19.8639 16.2331C20.0423 16.2331 20.2127 16.1416 20.3344 15.9677C20.6994 15.4186 21.1456 14.9427 21.6485 14.5583C22.046 14.2471 22.4759 13.9908 22.9383 13.7986L23.7982 15.9403L24.147 16.5993C24.7879 17.7799 33.0216 14.3478 31.894 23.1706L31.8859 23.1432Z" fill="white"/>
<path d="M0.354396 15.3454C1.65233 16.1051 2.95026 16.8739 4.2563 17.6335C6.92517 19.1986 9.59403 20.7728 12.2629 22.3379C14.5099 23.6558 16.757 24.9829 19.004 26.3008C19.3934 26.5296 19.7828 26.7767 20.1803 26.9872C20.448 27.1337 20.7319 27.097 21.0239 27.097H30.5799C31.4966 27.097 31.4966 25.4954 30.5799 25.4954H20.5453L20.9022 25.6052C18.6714 24.2964 16.4325 22.9785 14.2017 21.6697C10.6405 19.583 7.08741 17.4871 3.52621 15.4003C2.70689 14.9244 1.89569 14.4393 1.07637 13.9634C0.257051 13.4875 -0.45681 14.8695 0.362508 15.3454H0.354396Z" fill="white"/>
</svg>
