<svg width="250" height="414" viewBox="0 0 250 414" fill="none" xmlns="http://www.w3.org/2000/svg">
<path fill-rule="evenodd" clip-rule="evenodd" d="M54.9084 116.013C48.5365 137.858 45.9156 171.765 62.5908 185.407H62.6508C91.0396 208.642 166.193 192.219 177.957 187.138C187.39 183.077 192.531 176.806 196.983 169.044C201.024 162.003 205.415 142.409 202.774 127.716C201.514 120.834 199.333 114.483 197.053 109.232C189.2 86.287 165.973 67.9433 125.85 67.3932C95.8311 66.9831 72.4939 80.7059 60.9603 100.96C60.5102 101.72 60.06 102.56 59.6099 103.471C57.5893 107.441 56.0188 111.642 54.9084 116.013Z" fill="#E6E6E5"/>
<path d="M69.9618 156.81C74.0337 156.81 76.1084 158.923 78.7481 160.429C79.0689 160.612 79.4536 160.377 79.4337 160.008C79.2198 156.049 77.4073 147.811 69.9618 147.811C63.753 147.811 62.1036 154.352 61.9662 160.006C61.9572 160.375 62.34 160.604 62.64 160.388C64.3584 159.154 66.0374 156.81 69.9618 156.81Z" fill="#130000"/>
<path d="M117.739 157.309C121.81 157.309 123.885 159.423 126.525 160.929C126.846 161.112 127.234 160.877 127.23 160.507C127.188 156.549 126.581 148.31 117.739 148.31C110.098 148.31 109.75 154.852 109.734 160.506C109.733 160.875 110.117 161.104 110.417 160.888C112.135 159.654 113.814 157.309 117.739 157.309Z" fill="#130000"/>
<path d="M105.455 165.309H82.3314C81.2338 165.309 80.3407 166.2 80.4773 167.289C81.1034 172.281 84.1064 180.307 93.0042 180.307C103.356 180.307 106.939 172.75 107.311 167.167C107.381 166.122 106.502 165.309 105.455 165.309Z" fill="black"/>
<path d="M101.469 167.308H84.3318C83.2342 167.308 82.3413 168.201 82.5279 169.283C83.1613 172.954 85.5913 178.307 92.1912 178.307C99.928 178.307 102.803 173.19 103.273 169.157C103.394 168.12 102.513 167.308 101.469 167.308Z" fill="white"/>
</svg>
