<svg width="250" height="414" viewBox="0 0 250 414" fill="none" xmlns="http://www.w3.org/2000/svg">
<path fill-rule="evenodd" clip-rule="evenodd" d="M54.9084 116.013C48.5365 137.858 45.9156 171.765 62.5908 185.407H62.6508C91.0396 208.642 166.193 192.219 177.957 187.138C187.39 183.077 192.531 176.806 196.983 169.044C201.024 162.003 205.415 142.409 202.774 127.716C201.514 120.834 199.333 114.483 197.053 109.232C189.2 86.287 165.973 67.9433 125.85 67.3932C95.8311 66.9831 72.4939 80.7059 60.9603 100.96C60.5102 101.72 60.06 102.56 59.6099 103.471C57.5893 107.441 56.0188 111.642 54.9084 116.013Z" fill="#E6E6E5"/>
<ellipse cx="91.8394" cy="167.61" rx="10.9113" ry="13.6377" fill="#010101"/>
<ellipse cx="69.5986" cy="147.844" rx="8.72903" ry="8.72811" fill="#010101"/>
<ellipse cx="120.373" cy="148.935" rx="9.82016" ry="9.81913" fill="#010101"/>
<ellipse cx="116.584" cy="146.208" rx="2.72782" ry="2.72753" fill="white"/>
<ellipse cx="65.2629" cy="145.662" rx="2.18226" ry="2.18203" fill="white"/>
</svg>
